<svg xmlns="http://www.w3.org/2000/svg" viewBox="0 0 100 100" role="img" aria-label="Ember logo">
  <defs>
    <linearGradient id="emberBg" x1="0.12" y1="0.04" x2="0.85" y2="1">
      <stop offset="0" stop-color="#FBBF24"/>
      <stop offset="0.45" stop-color="#F97316"/>
      <stop offset="1" stop-color="#DC2626"/>
    </linearGradient>
    <radialGradient id="emberGloss" cx="0.3" cy="0.06" r="0.95">
      <stop offset="0" stop-color="#ffffff" stop-opacity="0.28"/>
      <stop offset="0.55" stop-color="#ffffff" stop-opacity="0"/>
    </radialGradient>
    <linearGradient id="emberFlame" x1="0.5" y1="0.08" x2="0.5" y2="0.95">
      <stop offset="0" stop-color="#FFF7ED"/>
      <stop offset="1" stop-color="#FDE68A"/>
    </linearGradient>
    <linearGradient id="emberCore" x1="0.5" y1="0.45" x2="0.5" y2="0.95">
      <stop offset="0" stop-color="#FFEDD5"/>
      <stop offset="1" stop-color="#F59E0B"/>
    </linearGradient>
    <clipPath id="emberSquircle"><rect x="0" y="0" width="100" height="100" rx="23.5"/></clipPath>
  </defs>
  <g clip-path="url(#emberSquircle)">
    <rect x="0" y="0" width="100" height="100" fill="url(#emberBg)"/>
    <rect x="0" y="0" width="100" height="100" fill="url(#emberGloss)"/>
    <!-- flame -->
    <path fill="url(#emberFlame)"
          d="M50 18c4.6 12.4 18.5 18.4 18.5 39.2C68.5 71 60.2 81 50 81S31.5 71 31.5 57.2c0-10.8 7.7-16.1 10.8-24.6.8 9.2 4.6 13.1 6.2 16.2 1.5-8.5-.8-20.8 1.5-30.8Z"/>
    <path fill="url(#emberCore)"
          d="M50 46c3.1 6.2 9.2 10 9.2 18.5 0 7.7-4.1 13.1-9.2 13.1s-9.2-5.4-9.2-13.1c0-6.2 4.3-9.2 6.1-13.8.5 4.6 2.2 6.1 3.1 7.7.9-4.6 0-9.2 0-12.4Z"/>
  </g>
  <rect x="0.7" y="0.7" width="98.6" height="98.6" rx="23" fill="none" stroke="#ffffff" stroke-opacity="0.20" stroke-width="0.9"/>
</svg>
